<svg width="200" height="200" viewBox="0 0 200 200" fill="none" xmlns="http://www.w3.org/2000/svg">
  <!-- Background Circle -->
  <circle cx="100" cy="100" r="95" fill="#1A202C" stroke="#00CFFF" stroke-width="2"/>

  <!-- Inner decorative circles -->
  <circle cx="100" cy="100" r="80" fill="none" stroke="#00CFFF" stroke-width="1" opacity="0.3"/>
  <circle cx="100" cy="100" r="65" fill="none" stroke="#00CFFF" stroke-width="1" opacity="0.2"/>

  <!-- Main N Symbol -->
  <g transform="translate(100, 100)">
    <!-- N Letter formed with geometric lines -->
    <path d="M-25,-40 L-25,40 M-25,-40 L0,-20 L0,20 L-25,40" stroke="#00CFFF" stroke-width="4" fill="none" stroke-linecap="round" stroke-linejoin="round"/>

    <!-- Tech circuit pattern elements -->
    <circle cx="-15" cy="-30" r="2" fill="#00CFFF"/>
    <circle cx="5" cy="-10" r="2" fill="#00CFFF"/>
    <circle cx="-15" cy="10" r="2" fill="#00CFFF"/>
    <circle cx="5" cy="30" r="2" fill="#00CFFF"/>

    <!-- Connecting lines for circuit effect -->
    <line x1="-15" y1="-30" x2="5" y2="-10" stroke="#00CFFF" stroke-width="1" opacity="0.6"/>
    <line x1="-15" y1="10" x2="5" y2="30" stroke="#00CFFF" stroke-width="1" opacity="0.6"/>
    <line x1="-25" y1="0" x2="0" y2="0" stroke="#00CFFF" stroke-width="1" opacity="0.4"/>

    <!-- Additional tech elements -->
    <rect x="10" y="-5" width="15" height="10" rx="2" fill="none" stroke="#00CFFF" stroke-width="1" opacity="0.7"/>
    <circle cx="25" cy="-20" r="3" fill="none" stroke="#00CFFF" stroke-width="1" opacity="0.5"/>
    <circle cx="25" cy="20" r="3" fill="none" stroke="#00CFFF" stroke-width="1" opacity="0.5"/>
  </g>

  <!-- Outer ring accent -->
  <circle cx="100" cy="100" r="95" fill="none" stroke="#00CFFF" stroke-width="1" opacity="0.3"/>

  <!-- Corner accent dots -->
  <circle cx="15" cy="15" r="3" fill="#00CFFF" opacity="0.6"/>
  <circle cx="185" cy="15" r="3" fill="#00CFFF" opacity="0.6"/>
  <circle cx="15" cy="185" r="3" fill="#00CFFF" opacity="0.6"/>
  <circle cx="185" cy="185" r="3" fill="#00CFFF" opacity="0.6"/>
</svg>